<?xml version="1.0" encoding="UTF-8" standalone="no"?>
<svg
   xmlns:dc="http://purl.org/dc/elements/1.1/"
   xmlns:cc="http://creativecommons.org/ns#"
   xmlns:rdf="http://www.w3.org/1999/02/22-rdf-syntax-ns#"
   xmlns:svg="http://www.w3.org/2000/svg"
   xmlns="http://www.w3.org/2000/svg"
   xmlns:sodipodi="http://sodipodi.sourceforge.net/DTD/sodipodi-0.dtd"
   xmlns:inkscape="http://www.inkscape.org/namespaces/inkscape"
   inkscape:version="1.0 (4035a4fb49, 2020-05-01)"
   sodipodi:docname="MY-LOGO-3.svg"
   xml:space="preserve"
   style="enable-background:new 0 0 963.6 464.3;"
   viewBox="0 0 963.6 464.3"
   y="0px"
   x="0px"
   id="Layer_1"
   version="1.1"><metadata
   id="metadata136"><rdf:RDF><cc:Work
       rdf:about=""><dc:format>image/svg+xml</dc:format><dc:type
         rdf:resource="http://purl.org/dc/dcmitype/StillImage" /></cc:Work></rdf:RDF></metadata><defs
   id="defs134" /><sodipodi:namedview
   inkscape:current-layer="Layer_1"
   inkscape:window-maximized="1"
   inkscape:window-y="-9"
   inkscape:window-x="-9"
   inkscape:cy="232.14999"
   inkscape:cx="481.79999"
   inkscape:zoom="1.2536322"
   showgrid="false"
   id="namedview132"
   inkscape:window-height="1001"
   inkscape:window-width="1920"
   inkscape:pageshadow="2"
   inkscape:pageopacity="0"
   guidetolerance="10"
   gridtolerance="10"
   objecttolerance="10"
   borderopacity="1"
   bordercolor="#666666"
   pagecolor="#ffffff" />
<style
   id="style2"
   type="text/css">
	.st0{fill:none;}
	.st1{fill:none;stroke:#000000;stroke-width:0.7087;stroke-linecap:round;stroke-linejoin:round;stroke-miterlimit:10;}
</style>
<g
   id="g34">
	<rect
   id="rect4"
   height="139.5"
   width="851"
   class="st0"
   y="375.1"
   x="59.8" />
	<path
   id="path6"
   d="M143.7,375.1c2.1,0,3.2,1.1,3.2,3.2v58c0,2.1-1.1,3.2-3.2,3.2s-3.2-1.1-3.2-3.2v-47.4l-13.1,19.7c-0.9,1.3-1.9,2-3,2   c-1.1,0-2.1-0.7-3-2l-13.1-19.7v47.4c0,2.1-1.1,3.2-3.2,3.2s-3.2-1.1-3.2-3.2v-58c0-2.1,1.1-3.2,3.2-3.2c1.2,0,2.1,0.5,2.8,1.6   l16.5,24.8l16.6-25C141.6,375.6,142.5,375.1,143.7,375.1z" />
	<path
   id="path8"
   d="M198.5,378.3v41.9c0,5.3-1.9,9.9-5.7,13.7c-3.8,3.8-8.3,5.7-13.7,5.7c-5.3,0-9.9-1.9-13.7-5.7c-3.8-3.8-5.7-8.3-5.7-13.7   v-41.9c0-2.1,1.1-3.2,3.2-3.2s3.2,1.1,3.2,3.2v41.9c0,3.6,1.2,6.7,3.7,9.2s5.5,3.7,9.2,3.7s6.7-1.2,9.2-3.7s3.7-5.5,3.7-9.2v-41.9   c0-2.1,1.1-3.2,3.2-3.2S198.5,376.2,198.5,378.3z" />
	<path
   id="path10"
   d="M250,423.4c0,4.4-1.6,8.2-4.7,11.4c-3.2,3.2-7,4.7-11.4,4.7c-7.9,0-15-2.3-21.1-7c-0.9-0.7-1.4-1.6-1.4-2.6   c0-0.9,0.3-1.6,1-2.3s1.4-1,2.3-1c0.5,0,1.1,0.2,1.9,0.6c1.9,1.1,4.9,2.6,8.9,4.5c2.6,0.9,5.5,1.4,8.6,1.4c2.7,0,4.9-0.9,6.8-2.8   c1.9-1.9,2.8-4.2,2.8-6.8c0-3.9-1.8-6.8-5.4-8.6l-18.1-9.3c-5.8-3-8.7-7.8-8.7-14.3c0-4.4,1.6-8.2,4.7-11.4   c3.2-3.2,6.9-4.7,11.4-4.7c7.6,0,13.4,1.2,17.4,3.5c1.3,0.7,1.9,1.7,1.9,2.9c0,0.9-0.3,1.6-1,2.3s-1.4,1-2.3,1   c-0.3,0-0.8-0.1-1.4-0.3c-4.9-1.9-9.9-2.9-14.7-2.9c-2.7,0-4.9,0.9-6.8,2.8c-1.9,1.9-2.8,4.2-2.8,6.8c0,3.9,1.8,6.8,5.3,8.6   l18.1,9.3C247.1,412.1,250,416.9,250,423.4z" />
	<path
   id="path12"
   d="M262.9,378.3c0-2.1,1.1-3.2,3.2-3.2h32.2c2.1,0,3.2,1.1,3.2,3.2s-1.1,3.2-3.2,3.2h-12.9v54.8c0,2.1-1.1,3.2-3.2,3.2   s-3.2-1.1-3.2-3.2v-54.8h-12.9C264,381.6,262.9,380.5,262.9,378.3z" />
	<path
   id="path14"
   d="M359.6,436.3c0,2.1-1.1,3.2-3.2,3.2c-1.6,0-2.6-0.7-3.1-2.2l-4.6-13.9h-23.2l-4.6,13.9c-0.5,1.5-1.5,2.2-3.1,2.2   c-2.1,0-3.2-1.1-3.2-3.2c0-0.4,0-0.7,0.1-1l19.2-57.6c0.6-1.7,1.7-2.6,3.2-2.6s2.6,0.8,3.2,2.5l19.2,57.7   C359.6,435.6,359.6,435.9,359.6,436.3z M337,388.6l-9.5,28.4h18.9L337,388.6z" />
	<path
   id="path16"
   d="M372.5,436.3v-58c0-2.1,1.1-3.2,3.2-3.2h25.8c2.1,0,3.2,1.1,3.2,3.2s-1.1,3.2-3.2,3.2h-22.6v19.3h22.6   c2.1,0,3.2,1.1,3.2,3.2s-1.1,3.2-3.2,3.2h-22.6v29c0,2.1-1.1,3.2-3.2,3.2S372.5,438.5,372.5,436.3z" />
	<path
   id="path18"
   d="M462.7,436.3c0,2.1-1.1,3.2-3.2,3.2c-1.6,0-2.6-0.7-3.1-2.2l-4.6-13.9h-23.2l-4.6,13.9c-0.5,1.5-1.5,2.2-3.1,2.2   c-2.1,0-3.2-1.1-3.2-3.2c0-0.4,0-0.7,0.1-1l19.2-57.6c0.6-1.7,1.7-2.6,3.2-2.6s2.6,0.8,3.2,2.5l19.2,57.7   C462.7,435.6,462.7,435.9,462.7,436.3z M440.2,388.6l-9.5,28.4h18.9L440.2,388.6z" />
	<path
   id="path20"
   d="M514.3,436.3v-58c0-2.1,1.1-3.2,3.2-3.2s3.2,1.1,3.2,3.2v22.6h25.8v-22.6c0-2.1,1.1-3.2,3.2-3.2s3.2,1.1,3.2,3.2v58   c0,2.1-1.1,3.2-3.2,3.2s-3.2-1.1-3.2-3.2v-29h-25.8v29c0,2.1-1.1,3.2-3.2,3.2S514.3,438.5,514.3,436.3z" />
	<path
   id="path22"
   d="M611,436.3c0,2.1-1.1,3.2-3.2,3.2c-1.6,0-2.6-0.7-3.1-2.2l-4.6-13.9h-23.2l-4.6,13.9c-0.5,1.5-1.5,2.2-3.1,2.2   c-2.1,0-3.2-1.1-3.2-3.2c0-0.4,0-0.7,0.1-1l19.2-57.6c0.6-1.7,1.7-2.6,3.2-2.6s2.6,0.8,3.2,2.5l19.2,57.7   C610.9,435.6,611,435.9,611,436.3z M588.4,388.6l-9.5,28.4h18.9L588.4,388.6z" />
	<path
   id="path24"
   d="M662.5,423.4c0,4.4-1.6,8.2-4.7,11.4c-3.2,3.2-7,4.7-11.4,4.7c-7.9,0-15-2.3-21.1-7c-0.9-0.7-1.4-1.6-1.4-2.6   c0-0.9,0.3-1.6,1-2.3s1.4-1,2.3-1c0.5,0,1.1,0.2,1.9,0.6c1.9,1.1,4.8,2.6,8.9,4.5c2.6,0.9,5.5,1.4,8.6,1.4c2.7,0,4.9-0.9,6.8-2.8   c1.9-1.9,2.8-4.2,2.8-6.8c0-3.9-1.8-6.8-5.4-8.6l-18.1-9.3c-5.8-3-8.7-7.8-8.7-14.3c0-4.4,1.6-8.2,4.7-11.4   c3.2-3.2,6.9-4.7,11.4-4.7c7.6,0,13.4,1.2,17.4,3.5c1.3,0.7,1.9,1.7,1.9,2.9c0,0.9-0.3,1.6-1,2.3s-1.4,1-2.3,1   c-0.3,0-0.8-0.1-1.4-0.3c-4.9-1.9-9.9-2.9-14.7-2.9c-2.7,0-4.9,0.9-6.8,2.8c-1.9,1.9-2.8,4.2-2.8,6.8c0,3.9,1.8,6.8,5.3,8.6   l18.1,9.3C659.6,412.1,662.5,416.9,662.5,423.4z" />
	<path
   id="path26"
   d="M714.1,423.4c0,4.4-1.6,8.2-4.7,11.4c-3.2,3.2-7,4.7-11.4,4.7c-7.9,0-15-2.3-21.1-7c-0.9-0.7-1.4-1.6-1.4-2.6   c0-0.9,0.3-1.6,1-2.3s1.4-1,2.3-1c0.5,0,1.1,0.2,1.9,0.6c1.9,1.1,4.8,2.6,8.9,4.5c2.6,0.9,5.5,1.4,8.6,1.4c2.7,0,4.9-0.9,6.8-2.8   c1.9-1.9,2.8-4.2,2.8-6.8c0-3.9-1.8-6.8-5.4-8.6l-18.1-9.3c-5.8-3-8.7-7.8-8.7-14.3c0-4.4,1.6-8.2,4.7-11.4   c3.2-3.2,6.9-4.7,11.4-4.7c7.6,0,13.4,1.2,17.4,3.5c1.3,0.7,1.9,1.7,1.9,2.9c0,0.9-0.3,1.6-1,2.3s-1.4,1-2.3,1   c-0.3,0-0.8-0.1-1.4-0.3c-4.9-1.9-9.9-2.9-14.7-2.9c-2.7,0-4.9,0.9-6.8,2.8c-1.9,1.9-2.8,4.2-2.8,6.8c0,3.9,1.8,6.8,5.3,8.6   l18.1,9.3C711.1,412.1,714.1,416.9,714.1,423.4z" />
	<path
   id="path28"
   d="M765.7,420.2c0,5.3-1.9,9.9-5.7,13.7c-3.8,3.8-8.3,5.7-13.7,5.7c-5.3,0-9.9-1.9-13.7-5.7c-3.8-3.8-5.7-8.3-5.7-13.7v-25.8   c0-5.3,1.9-9.9,5.7-13.7c3.8-3.8,8.3-5.7,13.7-5.7c5.4,0,9.9,1.9,13.7,5.6s5.6,8.3,5.6,13.7V420.2z M759.2,420.2v-25.8   c0-3.6-1.2-6.7-3.7-9.2s-5.5-3.7-9.2-3.7s-6.7,1.2-9.2,3.7s-3.7,5.5-3.7,9.2v25.8c0,3.6,1.2,6.7,3.7,9.2s5.5,3.7,9.2,3.7   s6.7-1.2,9.2-3.7S759.2,423.8,759.2,420.2z" />
	<path
   id="path30"
   d="M817.2,420.2c0,5.3-1.9,9.9-5.7,13.7c-3.8,3.8-8.3,5.7-13.7,5.7c-5.3,0-9.9-1.9-13.7-5.7c-3.8-3.8-5.7-8.3-5.7-13.7v-25.8   c0-5.3,1.9-9.9,5.7-13.7c3.8-3.8,8.3-5.7,13.7-5.7c5.4,0,9.9,1.9,13.7,5.6s5.6,8.3,5.6,13.7V420.2z M810.8,420.2v-25.8   c0-3.6-1.2-6.7-3.7-9.2s-5.5-3.7-9.2-3.7s-6.7,1.2-9.2,3.7s-3.7,5.5-3.7,9.2v25.8c0,3.6,1.2,6.7,3.7,9.2s5.5,3.7,9.2,3.7   s6.7-1.2,9.2-3.7S810.8,423.8,810.8,420.2z" />
	<path
   id="path32"
   d="M862.3,423.9v-45.6c0-2.1,1.1-3.2,3.2-3.2s3.2,1.1,3.2,3.2v58c0,2.1-1.1,3.2-3.2,3.2c-1.3,0-2.2-0.5-2.8-1.6l-26.2-47.2   v45.6c0,2.1-1.1,3.2-3.2,3.2s-3.2-1.1-3.2-3.2v-58c0-2.1,1.1-3.2,3.2-3.2c1.3,0,2.3,0.6,3,1.9L862.3,423.9z" />
</g>
<g
   style="fill:#502d16"
   id="g99">
	<g
   style="fill:#502d16"
   id="LINE">
		<line
   style="fill:#502d16"
   id="line36"
   y2="348"
   x2="254.1"
   y1="53.2"
   x1="254.1"
   class="st1" />
	</g>
	<g
   style="fill:#502d16"
   id="LINE_1_">
		<line
   style="fill:#502d16"
   id="line39"
   y2="348"
   x2="424.3"
   y1="53.2"
   x1="254.1"
   class="st1" />
	</g>
	<g
   style="fill:#502d16"
   id="LINE_2_">
		<line
   style="fill:#502d16"
   id="line42"
   y2="348"
   x2="485"
   y1="27"
   x1="299.6"
   class="st1" />
	</g>
	<g
   style="fill:#502d16"
   id="LINE_3_">
		<line
   style="fill:#502d16"
   id="line45"
   y2="243"
   x2="485"
   y1="27"
   x1="360.2"
   class="st1" />
	</g>
	<g
   style="fill:#502d16"
   id="LINE_4_">
		<line
   style="fill:#502d16"
   id="line48"
   y2="138"
   x2="485"
   y1="27"
   x1="420.9"
   class="st1" />
	</g>
	<g
   style="fill:#502d16"
   id="LINE_5_">
		<line
   style="fill:#502d16"
   id="line51"
   y2="348"
   x2="321.8"
   y1="348"
   x1="254.1"
   class="st1" />
	</g>
	<g
   style="fill:#502d16"
   id="LINE_6_">
		<line
   style="fill:#502d16"
   id="line54"
   y2="348"
   x2="424.3"
   y1="348"
   x1="356.7"
   class="st1" />
	</g>
	<g
   style="fill:#502d16"
   id="LINE_7_">
		<line
   style="fill:#502d16"
   id="line57"
   y2="287.5"
   x2="321.8"
   y1="348"
   x1="321.8"
   class="st1" />
	</g>
	<g
   style="fill:#502d16"
   id="LINE_8_">
		<line
   style="fill:#502d16"
   id="line60"
   y2="348"
   x2="356.7"
   y1="287.5"
   x1="321.8"
   class="st1" />
	</g>
	<g
   style="fill:#502d16"
   id="LINE_9_">
		<line
   style="fill:#502d16"
   id="line63"
   y2="348"
   x2="715.8"
   y1="53.2"
   x1="715.8"
   class="st1" />
	</g>
	<g
   style="fill:#502d16"
   id="LINE_10_">
		<line
   style="fill:#502d16"
   id="line66"
   y2="348"
   x2="545.6"
   y1="53.2"
   x1="715.8"
   class="st1" />
	</g>
	<g
   style="fill:#502d16"
   id="LINE_11_">
		<line
   style="fill:#502d16"
   id="line69"
   y2="348"
   x2="485"
   y1="27"
   x1="670.3"
   class="st1" />
	</g>
	<g
   style="fill:#502d16"
   id="LINE_12_">
		<line
   style="fill:#502d16"
   id="line72"
   y2="243"
   x2="485"
   y1="27"
   x1="609.7"
   class="st1" />
	</g>
	<g
   style="fill:#502d16"
   id="LINE_13_">
		<line
   style="fill:#502d16"
   id="line75"
   y2="138"
   x2="485"
   y1="27"
   x1="549.1"
   class="st1" />
	</g>
	<g
   style="fill:#502d16"
   id="LINE_14_">
		<line
   style="fill:#502d16"
   id="line78"
   y2="348"
   x2="648.2"
   y1="348"
   x1="715.8"
   class="st1" />
	</g>
	<g
   style="fill:#502d16"
   id="LINE_15_">
		<line
   style="fill:#502d16"
   id="line81"
   y2="348"
   x2="545.6"
   y1="348"
   x1="613.2"
   class="st1" />
	</g>
	<g
   style="fill:#502d16"
   id="LINE_16_">
		<line
   style="fill:#502d16"
   id="line84"
   y2="287.5"
   x2="648.2"
   y1="348"
   x1="648.2"
   class="st1" />
	</g>
	<g
   style="fill:#502d16"
   id="LINE_17_">
		<line
   style="fill:#502d16"
   id="line87"
   y2="348"
   x2="613.2"
   y1="287.5"
   x1="648.2"
   class="st1" />
	</g>
	<g
   style="fill:#502d16"
   id="LINE_18_">
		<line
   style="fill:#502d16"
   id="line90"
   y2="27"
   x2="360.2"
   y1="27"
   x1="299.6"
   class="st1" />
	</g>
	<g
   style="fill:#502d16"
   id="LINE_19_">
		<line
   style="fill:#502d16"
   id="line93"
   y2="27"
   x2="670.3"
   y1="27"
   x1="609.7"
   class="st1" />
	</g>
	<g
   style="fill:#502d16"
   id="LINE_20_">
		<line
   style="fill:#502d16"
   id="line96"
   y2="27"
   x2="549.1"
   y1="27"
   x1="420.9"
   class="st1" />
	</g>
</g>
<g
   id="g101">
</g>
<g
   id="g103">
</g>
<g
   id="g105">
</g>
<g
   id="g107">
</g>
<g
   id="g109">
</g>
<g
   id="g111">
</g>
<g
   id="g113">
</g>
<g
   id="g115">
</g>
<g
   id="g117">
</g>
<g
   id="g119">
</g>
<g
   id="g121">
</g>
<g
   id="g123">
</g>
<g
   id="g125">
</g>
<g
   id="g127">
</g>
<g
   id="g129">
</g>
</svg>
