<?xml version="1.0" encoding="utf-8"?>
<!-- Generator: Adobe Illustrator 22.0.0, SVG Export Plug-In . SVG Version: 6.00 Build 0)  -->
<svg version="1.1" id="Layer_1" xmlns="http://www.w3.org/2000/svg" xmlns:xlink="http://www.w3.org/1999/xlink" x="0px" y="0px"
	 viewBox="0 0 963.6 464.3" style="enable-background:new 0 0 963.6 464.3;" xml:space="preserve">
<style type="text/css">
	.st0{fill:none;}
	.st1{fill:#F95950;}
	.st2{fill:#F95950;stroke:#F95950;stroke-width:7;stroke-miterlimit:10;}
</style>
<g>
	<rect x="59.8" y="375.1" class="st0" width="851" height="139.5"/>
	<path class="st1" d="M143.7,375.1c2.1,0,3.2,1.1,3.2,3.2v58c0,2.1-1.1,3.2-3.2,3.2s-3.2-1.1-3.2-3.2v-47.4l-13.1,19.7
		c-0.9,1.3-1.9,2-3,2c-1.1,0-2.1-0.7-3-2l-13.1-19.7v47.4c0,2.1-1.1,3.2-3.2,3.2s-3.2-1.1-3.2-3.2v-58c0-2.1,1.1-3.2,3.2-3.2
		c1.2,0,2.1,0.5,2.8,1.6l16.5,24.8l16.6-25C141.6,375.6,142.5,375.1,143.7,375.1z"/>
	<path class="st1" d="M198.5,378.3v41.9c0,5.3-1.9,9.9-5.7,13.7c-3.8,3.8-8.3,5.7-13.7,5.7c-5.3,0-9.9-1.9-13.7-5.7
		c-3.8-3.8-5.7-8.3-5.7-13.7v-41.9c0-2.1,1.1-3.2,3.2-3.2s3.2,1.1,3.2,3.2v41.9c0,3.6,1.2,6.7,3.7,9.2s5.5,3.7,9.2,3.7
		s6.7-1.2,9.2-3.7s3.7-5.5,3.7-9.2v-41.9c0-2.1,1.1-3.2,3.2-3.2S198.5,376.2,198.5,378.3z"/>
	<path class="st1" d="M250,423.4c0,4.4-1.6,8.2-4.7,11.4c-3.2,3.2-7,4.7-11.4,4.7c-7.9,0-15-2.3-21.1-7c-0.9-0.7-1.4-1.6-1.4-2.6
		c0-0.9,0.3-1.6,1-2.3s1.4-1,2.3-1c0.5,0,1.1,0.2,1.9,0.6c1.9,1.1,4.9,2.6,8.9,4.5c2.6,0.9,5.5,1.4,8.6,1.4c2.7,0,4.9-0.9,6.8-2.8
		c1.9-1.9,2.8-4.2,2.8-6.8c0-3.9-1.8-6.8-5.4-8.6l-18.1-9.3c-5.8-3-8.7-7.8-8.7-14.3c0-4.4,1.6-8.2,4.7-11.4
		c3.2-3.2,6.9-4.7,11.4-4.7c7.6,0,13.4,1.2,17.4,3.5c1.3,0.7,1.9,1.7,1.9,2.9c0,0.9-0.3,1.6-1,2.3s-1.4,1-2.3,1
		c-0.3,0-0.8-0.1-1.4-0.3c-4.9-1.9-9.9-2.9-14.7-2.9c-2.7,0-4.9,0.9-6.8,2.8c-1.9,1.9-2.8,4.2-2.8,6.8c0,3.9,1.8,6.8,5.3,8.6
		l18.1,9.3C247.1,412.1,250,416.9,250,423.4z"/>
	<path class="st1" d="M262.9,378.3c0-2.1,1.1-3.2,3.2-3.2h32.2c2.1,0,3.2,1.1,3.2,3.2s-1.1,3.2-3.2,3.2h-12.9v54.8
		c0,2.1-1.1,3.2-3.2,3.2s-3.2-1.1-3.2-3.2v-54.8h-12.9C264,381.6,262.9,380.5,262.9,378.3z"/>
	<path class="st1" d="M359.6,436.3c0,2.1-1.1,3.2-3.2,3.2c-1.6,0-2.6-0.7-3.1-2.2l-4.6-13.9h-23.2l-4.6,13.9
		c-0.5,1.5-1.5,2.2-3.1,2.2c-2.1,0-3.2-1.1-3.2-3.2c0-0.4,0-0.7,0.1-1l19.2-57.6c0.6-1.7,1.7-2.6,3.2-2.6s2.6,0.8,3.2,2.5l19.2,57.7
		C359.6,435.6,359.6,435.9,359.6,436.3z M337,388.6l-9.5,28.4h18.9L337,388.6z"/>
	<path class="st1" d="M372.5,436.3v-58c0-2.1,1.1-3.2,3.2-3.2h25.8c2.1,0,3.2,1.1,3.2,3.2s-1.1,3.2-3.2,3.2h-22.6v19.3h22.6
		c2.1,0,3.2,1.1,3.2,3.2s-1.1,3.2-3.2,3.2h-22.6v29c0,2.1-1.1,3.2-3.2,3.2S372.5,438.5,372.5,436.3z"/>
	<path class="st1" d="M462.7,436.3c0,2.1-1.1,3.2-3.2,3.2c-1.6,0-2.6-0.7-3.1-2.2l-4.6-13.9h-23.2l-4.6,13.9
		c-0.5,1.5-1.5,2.2-3.1,2.2c-2.1,0-3.2-1.1-3.2-3.2c0-0.4,0-0.7,0.1-1l19.2-57.6c0.6-1.7,1.7-2.6,3.2-2.6s2.6,0.8,3.2,2.5l19.2,57.7
		C462.7,435.6,462.7,435.9,462.7,436.3z M440.2,388.6l-9.5,28.4h18.9L440.2,388.6z"/>
	<path class="st1" d="M514.3,436.3v-58c0-2.1,1.1-3.2,3.2-3.2s3.2,1.1,3.2,3.2v22.6h25.8v-22.6c0-2.1,1.1-3.2,3.2-3.2
		s3.2,1.1,3.2,3.2v58c0,2.1-1.1,3.2-3.2,3.2s-3.2-1.1-3.2-3.2v-29h-25.8v29c0,2.1-1.1,3.2-3.2,3.2S514.3,438.5,514.3,436.3z"/>
	<path class="st1" d="M611,436.3c0,2.1-1.1,3.2-3.2,3.2c-1.6,0-2.6-0.7-3.1-2.2l-4.6-13.9h-23.2l-4.6,13.9c-0.5,1.5-1.5,2.2-3.1,2.2
		c-2.1,0-3.2-1.1-3.2-3.2c0-0.4,0-0.7,0.1-1l19.2-57.6c0.6-1.7,1.7-2.6,3.2-2.6s2.6,0.8,3.2,2.5l19.2,57.7
		C610.9,435.6,611,435.9,611,436.3z M588.4,388.6l-9.5,28.4h18.9L588.4,388.6z"/>
	<path class="st1" d="M662.5,423.4c0,4.4-1.6,8.2-4.7,11.4c-3.2,3.2-7,4.7-11.4,4.7c-7.9,0-15-2.3-21.1-7c-0.9-0.7-1.4-1.6-1.4-2.6
		c0-0.9,0.3-1.6,1-2.3s1.4-1,2.3-1c0.5,0,1.1,0.2,1.9,0.6c1.9,1.1,4.8,2.6,8.9,4.5c2.6,0.9,5.5,1.4,8.6,1.4c2.7,0,4.9-0.9,6.8-2.8
		c1.9-1.9,2.8-4.2,2.8-6.8c0-3.9-1.8-6.8-5.4-8.6l-18.1-9.3c-5.8-3-8.7-7.8-8.7-14.3c0-4.4,1.6-8.2,4.7-11.4
		c3.2-3.2,6.9-4.7,11.4-4.7c7.6,0,13.4,1.2,17.4,3.5c1.3,0.7,1.9,1.7,1.9,2.9c0,0.9-0.3,1.6-1,2.3s-1.4,1-2.3,1
		c-0.3,0-0.8-0.1-1.4-0.3c-4.9-1.9-9.9-2.9-14.7-2.9c-2.7,0-4.9,0.9-6.8,2.8c-1.9,1.9-2.8,4.2-2.8,6.8c0,3.9,1.8,6.8,5.3,8.6
		l18.1,9.3C659.6,412.1,662.5,416.9,662.5,423.4z"/>
	<path class="st1" d="M714.1,423.4c0,4.4-1.6,8.2-4.7,11.4c-3.2,3.2-7,4.7-11.4,4.7c-7.9,0-15-2.3-21.1-7c-0.9-0.7-1.4-1.6-1.4-2.6
		c0-0.9,0.3-1.6,1-2.3s1.4-1,2.3-1c0.5,0,1.1,0.2,1.9,0.6c1.9,1.1,4.8,2.6,8.9,4.5c2.6,0.9,5.5,1.4,8.6,1.4c2.7,0,4.9-0.9,6.8-2.8
		c1.9-1.9,2.8-4.2,2.8-6.8c0-3.9-1.8-6.8-5.4-8.6l-18.1-9.3c-5.8-3-8.7-7.8-8.7-14.3c0-4.4,1.6-8.2,4.7-11.4
		c3.2-3.2,6.9-4.7,11.4-4.7c7.6,0,13.4,1.2,17.4,3.5c1.3,0.7,1.9,1.7,1.9,2.9c0,0.9-0.3,1.6-1,2.3s-1.4,1-2.3,1
		c-0.3,0-0.8-0.1-1.4-0.3c-4.9-1.9-9.9-2.9-14.7-2.9c-2.7,0-4.9,0.9-6.8,2.8c-1.9,1.9-2.8,4.2-2.8,6.8c0,3.9,1.8,6.8,5.3,8.6
		l18.1,9.3C711.1,412.1,714.1,416.9,714.1,423.4z"/>
	<path class="st1" d="M765.7,420.2c0,5.3-1.9,9.9-5.7,13.7c-3.8,3.8-8.3,5.7-13.7,5.7c-5.3,0-9.9-1.9-13.7-5.7
		c-3.8-3.8-5.7-8.3-5.7-13.7v-25.8c0-5.3,1.9-9.9,5.7-13.7c3.8-3.8,8.3-5.7,13.7-5.7c5.4,0,9.9,1.9,13.7,5.6s5.6,8.3,5.6,13.7V420.2
		z M759.2,420.2v-25.8c0-3.6-1.2-6.7-3.7-9.2s-5.5-3.7-9.2-3.7s-6.7,1.2-9.2,3.7s-3.7,5.5-3.7,9.2v25.8c0,3.6,1.2,6.7,3.7,9.2
		s5.5,3.7,9.2,3.7s6.7-1.2,9.2-3.7S759.2,423.8,759.2,420.2z"/>
	<path class="st1" d="M817.2,420.2c0,5.3-1.9,9.9-5.7,13.7c-3.8,3.8-8.3,5.7-13.7,5.7c-5.3,0-9.9-1.9-13.7-5.7
		c-3.8-3.8-5.7-8.3-5.7-13.7v-25.8c0-5.3,1.9-9.9,5.7-13.7c3.8-3.8,8.3-5.7,13.7-5.7c5.4,0,9.9,1.9,13.7,5.6s5.6,8.3,5.6,13.7V420.2
		z M810.8,420.2v-25.8c0-3.6-1.2-6.7-3.7-9.2s-5.5-3.7-9.2-3.7s-6.7,1.2-9.2,3.7s-3.7,5.5-3.7,9.2v25.8c0,3.6,1.2,6.7,3.7,9.2
		s5.5,3.7,9.2,3.7s6.7-1.2,9.2-3.7S810.8,423.8,810.8,420.2z"/>
	<path class="st1" d="M862.3,423.9v-45.6c0-2.1,1.1-3.2,3.2-3.2s3.2,1.1,3.2,3.2v58c0,2.1-1.1,3.2-3.2,3.2c-1.3,0-2.2-0.5-2.8-1.6
		l-26.2-47.2v45.6c0,2.1-1.1,3.2-3.2,3.2s-3.2-1.1-3.2-3.2v-58c0-2.1,1.1-3.2,3.2-3.2c1.3,0,2.3,0.6,3,1.9L862.3,423.9z"/>
</g>
<g>
	<g id="LINE">
		<g>
			<line class="st2" x1="254.1" y1="53.2" x2="254.1" y2="348"/>
			<path class="st2" d="M254.1,348.4c-0.2,0-0.4-0.2-0.4-0.4V53.2c0-0.2,0.2-0.4,0.4-0.4s0.4,0.2,0.4,0.4V348
				C254.5,348.2,254.3,348.4,254.1,348.4z"/>
		</g>
	</g>
	<g id="LINE_1_">
		<g>
			<line class="st2" x1="254.1" y1="53.2" x2="424.3" y2="348"/>
			<path class="st2" d="M424.3,348.4c-0.1,0-0.2-0.1-0.3-0.2L253.8,53.4c-0.1-0.2,0-0.4,0.1-0.5c0.2-0.1,0.4,0,0.5,0.1l170.2,294.8
				c0.1,0.2,0,0.4-0.1,0.5C424.5,348.4,424.4,348.4,424.3,348.4z"/>
		</g>
	</g>
	<g id="LINE_2_">
		<g>
			<line class="st2" x1="299.6" y1="27" x2="485" y2="348"/>
			<path class="st2" d="M485,348.4c-0.1,0-0.2-0.1-0.3-0.2l-185.3-321c-0.1-0.2,0-0.4,0.1-0.5c0.2-0.1,0.4,0,0.5,0.1l185.3,321
				c0.1,0.2,0,0.4-0.1,0.5C485.1,348.4,485,348.4,485,348.4z"/>
		</g>
	</g>
	<g id="LINE_3_">
		<g>
			<line class="st2" x1="360.2" y1="27" x2="485" y2="243"/>
			<path class="st2" d="M485,243.4c-0.1,0-0.2-0.1-0.3-0.2l-124.7-216c-0.1-0.2,0-0.4,0.1-0.5c0.2-0.1,0.4,0,0.5,0.1l124.7,216
				c0.1,0.2,0,0.4-0.1,0.5C485.1,243.4,485,243.4,485,243.4z"/>
		</g>
	</g>
	<g id="LINE_4_">
		<g>
			<line class="st2" x1="420.9" y1="27" x2="485" y2="138"/>
			<path class="st2" d="M485,138.4c-0.1,0-0.2-0.1-0.3-0.2l-64.1-111c-0.1-0.2,0-0.4,0.1-0.5c0.2-0.1,0.4,0,0.5,0.1l64.1,111
				c0.1,0.2,0,0.4-0.1,0.5C485.1,138.3,485,138.4,485,138.4z"/>
		</g>
	</g>
	<g id="LINE_5_">
		<g>
			<line class="st2" x1="254.1" y1="348" x2="321.8" y2="348"/>
			<path class="st2" d="M321.8,348.4h-67.6c-0.2,0-0.4-0.2-0.4-0.4s0.2-0.4,0.4-0.4h67.6c0.2,0,0.4,0.2,0.4,0.4
				S322,348.4,321.8,348.4z"/>
		</g>
	</g>
	<g id="LINE_6_">
		<g>
			<line class="st2" x1="356.7" y1="348" x2="424.3" y2="348"/>
			<path class="st2" d="M424.3,348.4h-67.6c-0.2,0-0.4-0.2-0.4-0.4s0.2-0.4,0.4-0.4h67.6c0.2,0,0.4,0.2,0.4,0.4
				S424.5,348.4,424.3,348.4z"/>
		</g>
	</g>
	<g id="LINE_7_">
		<g>
			<line class="st2" x1="321.8" y1="348" x2="321.8" y2="287.5"/>
			<path class="st2" d="M321.8,348.4c-0.2,0-0.4-0.2-0.4-0.4v-60.5c0-0.2,0.2-0.4,0.4-0.4s0.4,0.2,0.4,0.4V348
				C322.1,348.2,322,348.4,321.8,348.4z"/>
		</g>
	</g>
	<g id="LINE_8_">
		<g>
			<line class="st2" x1="321.8" y1="287.5" x2="356.7" y2="348"/>
			<path class="st2" d="M356.7,348.4c-0.1,0-0.2-0.1-0.3-0.2l-34.9-60.5c-0.1-0.2,0-0.4,0.1-0.5c0.2-0.1,0.4,0,0.5,0.1l34.9,60.5
				c0.1,0.2,0,0.4-0.1,0.5C356.8,348.4,356.8,348.4,356.7,348.4z"/>
		</g>
	</g>
	<g id="LINE_9_">
		<g>
			<line class="st2" x1="715.8" y1="53.2" x2="715.8" y2="348"/>
			<path class="st2" d="M715.8,348.4c-0.2,0-0.4-0.2-0.4-0.4V53.2c0-0.2,0.2-0.4,0.4-0.4s0.4,0.2,0.4,0.4V348
				C716.1,348.2,716,348.4,715.8,348.4z"/>
		</g>
	</g>
	<g id="LINE_10_">
		<g>
			<line class="st2" x1="715.8" y1="53.2" x2="545.6" y2="348"/>
			<path class="st2" d="M545.6,348.4c-0.1,0-0.1,0-0.2,0c-0.2-0.1-0.2-0.3-0.1-0.5L715.5,53.1c0.1-0.2,0.3-0.2,0.5-0.1
				c0.2,0.1,0.2,0.3,0.1,0.5L545.9,348.2C545.8,348.3,545.7,348.4,545.6,348.4z"/>
		</g>
	</g>
	<g id="LINE_11_">
		<g>
			<line class="st2" x1="670.3" y1="27" x2="485" y2="348"/>
			<path class="st2" d="M485,348.4c-0.1,0-0.1,0-0.2,0c-0.2-0.1-0.2-0.3-0.1-0.5L670,26.8c0.1-0.2,0.3-0.2,0.5-0.1
				c0.2,0.1,0.2,0.3,0.1,0.5l-185.3,321C485.2,348.3,485.1,348.4,485,348.4z"/>
		</g>
	</g>
	<g id="LINE_12_">
		<g>
			<line class="st2" x1="609.7" y1="27" x2="485" y2="243"/>
			<path class="st2" d="M485,243.4c-0.1,0-0.1,0-0.2,0c-0.2-0.1-0.2-0.3-0.1-0.5l124.7-216c0.1-0.2,0.3-0.2,0.5-0.1
				c0.2,0.1,0.2,0.3,0.1,0.5l-124.7,216C485.2,243.3,485.1,243.4,485,243.4z"/>
		</g>
	</g>
	<g id="LINE_13_">
		<g>
			<line class="st2" x1="549.1" y1="27" x2="485" y2="138"/>
			<path class="st2" d="M485,138.4c-0.1,0-0.1,0-0.2,0c-0.2-0.1-0.2-0.3-0.1-0.5l64.1-111c0.1-0.2,0.3-0.2,0.5-0.1
				c0.2,0.1,0.2,0.3,0.1,0.5l-64.1,111C485.2,138.3,485.1,138.4,485,138.4z"/>
		</g>
	</g>
	<g id="LINE_14_">
		<g>
			<line class="st2" x1="715.8" y1="348" x2="648.2" y2="348"/>
			<path class="st2" d="M715.8,348.4h-67.6c-0.2,0-0.4-0.2-0.4-0.4s0.2-0.4,0.4-0.4h67.6c0.2,0,0.4,0.2,0.4,0.4
				S716,348.4,715.8,348.4z"/>
		</g>
	</g>
	<g id="LINE_15_">
		<g>
			<line class="st2" x1="613.2" y1="348" x2="545.6" y2="348"/>
			<path class="st2" d="M613.2,348.4h-67.6c-0.2,0-0.4-0.2-0.4-0.4s0.2-0.4,0.4-0.4h67.6c0.2,0,0.4,0.2,0.4,0.4
				S613.4,348.4,613.2,348.4z"/>
		</g>
	</g>
	<g id="LINE_16_">
		<g>
			<line class="st2" x1="648.2" y1="348" x2="648.2" y2="287.5"/>
			<path class="st2" d="M648.2,348.4c-0.2,0-0.4-0.2-0.4-0.4v-60.5c0-0.2,0.2-0.4,0.4-0.4s0.4,0.2,0.4,0.4V348
				C648.5,348.2,648.3,348.4,648.2,348.4z"/>
		</g>
	</g>
	<g id="LINE_17_">
		<g>
			<line class="st2" x1="648.2" y1="287.5" x2="613.2" y2="348"/>
			<path class="st2" d="M613.2,348.4c-0.1,0-0.1,0-0.2,0c-0.2-0.1-0.2-0.3-0.1-0.5l34.9-60.5c0.1-0.2,0.3-0.2,0.5-0.1
				c0.2,0.1,0.2,0.3,0.1,0.5l-34.9,60.5C613.5,348.3,613.3,348.4,613.2,348.4z"/>
		</g>
	</g>
	<g id="LINE_18_">
		<g>
			<line class="st2" x1="299.6" y1="27" x2="360.2" y2="27"/>
			<path class="st2" d="M360.2,27.3h-60.6c-0.2,0-0.4-0.2-0.4-0.4s0.2-0.4,0.4-0.4h60.6c0.2,0,0.4,0.2,0.4,0.4
				S360.4,27.3,360.2,27.3z"/>
		</g>
	</g>
	<g id="LINE_19_">
		<g>
			<line class="st2" x1="609.7" y1="27" x2="670.3" y2="27"/>
			<path class="st2" d="M670.3,27.3h-60.6c-0.2,0-0.4-0.2-0.4-0.4s0.2-0.4,0.4-0.4h60.6c0.2,0,0.4,0.2,0.4,0.4
				S670.5,27.3,670.3,27.3z"/>
		</g>
	</g>
	<g id="LINE_20_">
		<g>
			<line class="st2" x1="420.9" y1="27" x2="549.1" y2="27"/>
			<path class="st2" d="M549.1,27.3H420.9c-0.2,0-0.4-0.2-0.4-0.4s0.2-0.4,0.4-0.4h128.2c0.2,0,0.4,0.2,0.4,0.4
				S549.3,27.3,549.1,27.3z"/>
		</g>
	</g>
</g>
<g>
</g>
<g>
</g>
<g>
</g>
<g>
</g>
<g>
</g>
<g>
</g>
<g>
</g>
<g>
</g>
<g>
</g>
<g>
</g>
<g>
</g>
<g>
</g>
<g>
</g>
<g>
</g>
<g>
</g>
</svg>
